<svg xmlns="http://www.w3.org/2000/svg" xmlns:xlink="http://www.w3.org/1999/xlink" viewBox="0 0 430 430" width="430" height="430" preserveAspectRatio="xMidYMid meet" style="width: 100%; height: 100%; transform: translate3d(0px, 0px, 0px); content-visibility: visible;"><defs><clipPath id="__lottie_element_2"><rect width="430" height="430" x="0" y="0"/></clipPath><clipPath id="__lottie_element_4"><path d="M0,0 L430,0 L430,430 L0,430z"/></clipPath><g id="__lottie_element_18"><g transform="matrix(0.7141773104667664,-0.7141773104667664,0.7141773104667664,0.7141773104667664,215,215)" opacity="1" style="display: block;"><path fill="rgb(255,0,0)" fill-opacity="1" d=" M0,-167.5 C92.44325256347656,-167.5 167.5,-92.44325256347656 167.5,0 C167.5,92.44325256347656 92.44325256347656,167.5 0,167.5 C-92.44325256347656,167.5 -167.5,92.44325256347656 -167.5,0 C-167.5,-92.44325256347656 -92.44325256347656,-167.5 0,-167.5z"/><g opacity="1" transform="matrix(1,0,0,1,0,0)"/></g></g><mask id="__lottie_element_18_1" mask-type="alpha"><use xmlns:ns1="http://www.w3.org/1999/xlink" ns1:href="#__lottie_element_18"/></mask><clipPath id="__lottie_element_380"><path d="M0,0 L430,0 L430,430 L0,430z"/></clipPath><clipPath id="__lottie_element_384"><path d="M0,0 L430,0 L430,430 L0,430z"/></clipPath><clipPath id="__lottie_element_391"><path d="M0,0 L430,0 L430,430 L0,430z"/></clipPath><g id="__lottie_element_394"><g transform="matrix(1.0099999904632568,0,0,1.0099999904632568,215,215)" opacity="1" style="display: none;"><g opacity="1" transform="matrix(1,0,0,1,0,0)"><path class="tertiary" fill="rgb(235,230,239)" fill-opacity="1" d=" M0,-19.857051849365234 C10.999669075012207,-19.857051849365234 19.91590690612793,-10.940813064575195 19.91590690612793,0.05885528773069382 C19.91590690612793,11.058524131774902 10.999669075012207,19.974761962890625 0,19.974761962890625 C-10.999669075012207,19.974761962890625 -19.91590690612793,11.058524131774902 -19.91590690612793,0.05885528773069382 C-19.91590690612793,-10.940813064575195 -10.999669075012207,-19.857051849365234 0,-19.857051849365234z"/></g></g></g><clipPath id="__lottie_element_398"><path d="M0,0 L430,0 L430,430 L0,430z"/></clipPath><g id="__lottie_element_401"><g transform="matrix(1.0099999904632568,0,0,1.0099999904632568,215,215)" opacity="1" style="display: none;"><g opacity="1" transform="matrix(1,0,0,1,0,0)"><path class="tertiary" fill="rgb(235,230,239)" fill-opacity="1" d=" M0,-4.605618476867676 C2.5799038410186768,-4.605618476867676 4.670553684234619,-2.5149688720703125 4.670553684234619,0.06493500620126724 C4.670553684234619,2.64483904838562 2.5799038410186768,4.735488414764404 0,4.735488414764404 C-2.5799038410186768,4.735488414764404 -4.670553684234619,2.64483904838562 -4.670553684234619,0.06493500620126724 C-4.670553684234619,-2.5149688720703125 -2.5799038410186768,-4.605618476867676 0,-4.605618476867676z"/></g></g></g><filter id="__lottie_element_404" filterUnits="objectBoundingBox" x="0%" y="0%" width="100%" height="100%"><feComponentTransfer in="SourceGraphic"><feFuncA type="table" tableValues="1.0 0.0"/></feComponentTransfer></filter><mask id="__lottie_element_401_2" mask-type="alpha"><g filter="url(#__lottie_element_404)"><rect width="430" height="430" x="0" y="0" fill="#ffffff" opacity="0"/><use xmlns:ns2="http://www.w3.org/1999/xlink" ns2:href="#__lottie_element_401"/></g></mask><mask id="__lottie_element_394_1" mask-type="alpha"><use xmlns:ns3="http://www.w3.org/1999/xlink" ns3:href="#__lottie_element_394"/></mask></defs><g clip-path="url(#__lottie_element_2)"><g clip-path="url(#__lottie_element_380)" transform="matrix(1,0,0,1,0,0)" opacity="1" style="display: block;"><g clip-path="url(#__lottie_element_384)" transform="matrix(1,0,0,1,0,0)" opacity="1" style="display: block;"><g transform="matrix(1,0,0,1,215,215)" opacity="1" style="display: none;"><g opacity="1" transform="matrix(1,0,0,1,0,0)"><path class="secondary" fill="rgb(75,179,253)" fill-opacity="1" d=" M0,-19.857051849365234 C10.999669075012207,-19.857051849365234 19.91590690612793,-10.940813064575195 19.91590690612793,0.05885528773069382 C19.91590690612793,11.058524131774902 10.999669075012207,19.974761962890625 0,19.974761962890625 C-10.999669075012207,19.974761962890625 -19.91590690612793,11.058524131774902 -19.91590690612793,0.05885528773069382 C-19.91590690612793,-10.940813064575195 -10.999669075012207,-19.857051849365234 0,-19.857051849365234z"/></g><g opacity="1" transform="matrix(1,0,0,1,-135.125,53.125)" style="mix-blend-mode: multiply;"><path class="secondary" fill="rgb(75,179,253)" fill-opacity="0.5" d=" M139.3007049560547,-34.9173698425293 C141.28427124023438,-34.9173698425293 143.2007598876953,-35.20726013183594 145.00938415527344,-35.747100830078125 C142.10025024414062,-34.084041595458984 138.7305908203125,-33.13383865356445 135.13909912109375,-33.13383865356445 C124.1394271850586,-33.13383865356445 115.22319030761719,-42.050079345703125 115.22319030761719,-53.049747467041016 C115.22319030761719,-62.06486129760742 121.21392822265625,-69.68231201171875 129.43121337890625,-72.13603210449219 C123.42941284179688,-68.70484161376953 119.38480377197266,-62.241451263427734 119.38480377197266,-54.833274841308594 C119.38480377197266,-43.8336067199707 128.30104064941406,-34.9173698425293 139.3007049560547,-34.9173698425293z"/></g></g><g mask="url(#__lottie_element_394_1)" style="display: block;"><g clip-path="url(#__lottie_element_391)" transform="matrix(1,0,0,1,-5,5)" opacity="1"><g transform="matrix(1,0,0,1,214.6439971923828,215)" opacity="1" style="display: block;"><g opacity="1" transform="matrix(1,0,0,1,0,0)"><path class="primary" fill="rgb(235,230,239)" fill-opacity="1" d=" M97.96299743652344,-182 C97.96299743652344,-183.65699768066406 96.62000274658203,-185 94.96299743652344,-185 C94.96299743652344,-185 24.21299934387207,-185 24.21299934387207,-185 C-14.446999549865723,-185 -45.7869987487793,-153.66000366210938 -45.7869987487793,-115 C-45.7869987487793,-115 -45.7869987487793,-39.643001556396484 -45.7869987487793,-39.643001556396484 C-45.7869987487793,-39.643001556396484 -100.64399719238281,-39.643001556396484 -100.64399719238281,-39.643001556396484 C-102.3010025024414,-39.643001556396484 -103.64399719238281,-38.29999923706055 -103.64399719238281,-36.643001556396484 C-103.64399719238281,-36.643001556396484 -103.64399719238281,30.035999298095703 -103.64399719238281,30.035999298095703 C-103.64399719238281,31.69300079345703 -102.3010025024414,33.0359992980957 -100.64399719238281,33.0359992980957 C-100.64399719238281,33.0359992980957 -45.7869987487793,33.0359992980957 -45.7869987487793,33.0359992980957 C-45.7869987487793,33.0359992980957 -45.7869987487793,182 -45.7869987487793,182 C-45.7869987487793,183.65699768066406 -44.444000244140625,185 -42.7869987487793,185 C-42.7869987487793,185 23.892000198364258,185 23.892000198364258,185 C25.548999786376953,185 26.892000198364258,183.65699768066406 26.892000198364258,182 C26.892000198364258,182 26.892000198364258,33.0359992980957 26.892000198364258,33.0359992980957 C26.892000198364258,33.0359992980957 82.45700073242188,33.0359992980957 82.45700073242188,33.0359992980957 C83.80999755859375,33.0359992980957 84.99600219726562,32.130001068115234 85.35199737548828,30.825000762939453 C85.35199737548828,30.825000762939453 103.53700256347656,-35.854000091552734 103.53700256347656,-35.854000091552734 C104.05699920654297,-37.762001037597656 102.62000274658203,-39.643001556396484 100.64199829101562,-39.643001556396484 C100.64199829101562,-39.643001556396484 26.892000198364258,-39.643001556396484 26.892000198364258,-39.643001556396484 C26.892000198364258,-39.643001556396484 26.892000198364258,-92.32099914550781 26.892000198364258,-92.32099914550781 C26.892000198364258,-103.36699676513672 35.84600067138672,-112.32099914550781 46.891998291015625,-112.32099914550781 C46.891998291015625,-112.32099914550781 94.96299743652344,-112.32099914550781 94.96299743652344,-112.32099914550781 C96.62000274658203,-112.32099914550781 97.96299743652344,-113.66400146484375 97.96299743652344,-115.32099914550781 C97.96299743652344,-115.32099914550781 97.96299743652344,-182 97.96299743652344,-182z"/></g><g opacity="1" transform="matrix(1,0,0,1,-22.5,0)" style="mix-blend-mode: multiply;"><path class="primary" fill="rgb(235,230,239)" fill-opacity="0.5" d=" M11.428999900817871,-39.643001556396484 C11.428999900817871,-39.643001556396484 -23.570999145507812,-39.643001556396484 -23.570999145507812,-39.643001556396484 C-23.570999145507812,-39.643001556396484 -23.570999145507812,-115 -23.570999145507812,-115 C-23.570999145507812,-153.66000366210938 7.769000053405762,-185 46.42900085449219,-185 C46.42900085449219,-185 81.42900085449219,-185 81.42900085449219,-185 C42.76900100708008,-185 11.428999900817871,-153.66000366210938 11.428999900817871,-115 C11.428999900817871,-115 11.428999900817871,-39.643001556396484 11.428999900817871,-39.643001556396484z M-46.42900085449219,-39.643001556396484 C-46.42900085449219,-39.643001556396484 -46.42900085449219,33.0359992980957 -46.42900085449219,33.0359992980957 C-46.42900085449219,33.0359992980957 -78.42900085449219,33.0359992980957 -78.42900085449219,33.0359992980957 C-80.08599853515625,33.0359992980957 -81.42900085449219,31.69300079345703 -81.42900085449219,30.035999298095703 C-81.42900085449219,30.035999298095703 -81.42900085449219,-36.643001556396484 -81.42900085449219,-36.643001556396484 C-81.42900085449219,-38.29999923706055 -80.08599853515625,-39.643001556396484 -78.42900085449219,-39.643001556396484 C-78.42900085449219,-39.643001556396484 -46.42900085449219,-39.643001556396484 -46.42900085449219,-39.643001556396484z M11.428999900817871,33.0359992980957 C11.428999900817871,33.0359992980957 11.428999900817871,185 11.428999900817871,185 C11.428999900817871,185 -20.570999145507812,185 -20.570999145507812,185 C-22.22800064086914,185 -23.570999145507812,183.65699768066406 -23.570999145507812,182 C-23.570999145507812,182 -23.570999145507812,33.0359992980957 -23.570999145507812,33.0359992980957 C-23.570999145507812,33.0359992980957 11.428999900817871,33.0359992980957 11.428999900817871,33.0359992980957z"/></g></g></g></g><g mask="url(#__lottie_element_401_2)" style="display: block;"><g clip-path="url(#__lottie_element_398)" transform="matrix(1,0,0,1,-5,5)" opacity="1"><g transform="matrix(1,0,0,1,214.6439971923828,215)" opacity="1" style="display: block;"><g opacity="1" transform="matrix(1,0,0,1,0,0)"><path class="secondary" fill="rgb(75,179,253)" fill-opacity="1" d=" M97.96299743652344,-182 C97.96299743652344,-183.65699768066406 96.62000274658203,-185 94.96299743652344,-185 C94.96299743652344,-185 24.21299934387207,-185 24.21299934387207,-185 C-14.446999549865723,-185 -45.7869987487793,-153.66000366210938 -45.7869987487793,-115 C-45.7869987487793,-115 -45.7869987487793,-39.643001556396484 -45.7869987487793,-39.643001556396484 C-45.7869987487793,-39.643001556396484 -100.64399719238281,-39.643001556396484 -100.64399719238281,-39.643001556396484 C-102.3010025024414,-39.643001556396484 -103.64399719238281,-38.29999923706055 -103.64399719238281,-36.643001556396484 C-103.64399719238281,-36.643001556396484 -103.64399719238281,30.035999298095703 -103.64399719238281,30.035999298095703 C-103.64399719238281,31.69300079345703 -102.3010025024414,33.0359992980957 -100.64399719238281,33.0359992980957 C-100.64399719238281,33.0359992980957 -45.7869987487793,33.0359992980957 -45.7869987487793,33.0359992980957 C-45.7869987487793,33.0359992980957 -45.7869987487793,182 -45.7869987487793,182 C-45.7869987487793,183.65699768066406 -44.444000244140625,185 -42.7869987487793,185 C-42.7869987487793,185 23.892000198364258,185 23.892000198364258,185 C25.548999786376953,185 26.892000198364258,183.65699768066406 26.892000198364258,182 C26.892000198364258,182 26.892000198364258,33.0359992980957 26.892000198364258,33.0359992980957 C26.892000198364258,33.0359992980957 82.45700073242188,33.0359992980957 82.45700073242188,33.0359992980957 C83.80999755859375,33.0359992980957 84.99600219726562,32.130001068115234 85.35199737548828,30.825000762939453 C85.35199737548828,30.825000762939453 103.53700256347656,-35.854000091552734 103.53700256347656,-35.854000091552734 C104.05699920654297,-37.762001037597656 102.62000274658203,-39.643001556396484 100.64199829101562,-39.643001556396484 C100.64199829101562,-39.643001556396484 26.892000198364258,-39.643001556396484 26.892000198364258,-39.643001556396484 C26.892000198364258,-39.643001556396484 26.892000198364258,-92.32099914550781 26.892000198364258,-92.32099914550781 C26.892000198364258,-103.36699676513672 35.84600067138672,-112.32099914550781 46.891998291015625,-112.32099914550781 C46.891998291015625,-112.32099914550781 94.96299743652344,-112.32099914550781 94.96299743652344,-112.32099914550781 C96.62000274658203,-112.32099914550781 97.96299743652344,-113.66400146484375 97.96299743652344,-115.32099914550781 C97.96299743652344,-115.32099914550781 97.96299743652344,-182 97.96299743652344,-182z"/></g><g opacity="1" transform="matrix(1,0,0,1,-22.5,0)" style="mix-blend-mode: multiply;"><path class="secondary" fill="rgb(75,179,253)" fill-opacity="0.5" d=" M11.428999900817871,-39.643001556396484 C11.428999900817871,-39.643001556396484 -23.570999145507812,-39.643001556396484 -23.570999145507812,-39.643001556396484 C-23.570999145507812,-39.643001556396484 -23.570999145507812,-115 -23.570999145507812,-115 C-23.570999145507812,-153.66000366210938 7.769000053405762,-185 46.42900085449219,-185 C46.42900085449219,-185 81.42900085449219,-185 81.42900085449219,-185 C42.76900100708008,-185 11.428999900817871,-153.66000366210938 11.428999900817871,-115 C11.428999900817871,-115 11.428999900817871,-39.643001556396484 11.428999900817871,-39.643001556396484z M-46.42900085449219,-39.643001556396484 C-46.42900085449219,-39.643001556396484 -46.42900085449219,33.0359992980957 -46.42900085449219,33.0359992980957 C-46.42900085449219,33.0359992980957 -78.42900085449219,33.0359992980957 -78.42900085449219,33.0359992980957 C-80.08599853515625,33.0359992980957 -81.42900085449219,31.69300079345703 -81.42900085449219,30.035999298095703 C-81.42900085449219,30.035999298095703 -81.42900085449219,-36.643001556396484 -81.42900085449219,-36.643001556396484 C-81.42900085449219,-38.29999923706055 -80.08599853515625,-39.643001556396484 -78.42900085449219,-39.643001556396484 C-78.42900085449219,-39.643001556396484 -46.42900085449219,-39.643001556396484 -46.42900085449219,-39.643001556396484z M11.428999900817871,33.0359992980957 C11.428999900817871,33.0359992980957 11.428999900817871,185 11.428999900817871,185 C11.428999900817871,185 -20.570999145507812,185 -20.570999145507812,185 C-22.22800064086914,185 -23.570999145507812,183.65699768066406 -23.570999145507812,182 C-23.570999145507812,182 -23.570999145507812,33.0359992980957 -23.570999145507812,33.0359992980957 C-23.570999145507812,33.0359992980957 11.428999900817871,33.0359992980957 11.428999900817871,33.0359992980957z"/></g></g></g></g></g></g><g clip-path="url(#__lottie_element_4)" transform="matrix(1,0,0,1,0,0)" opacity="1" style="display: none;"><g transform="matrix(1.0073792934417725,0,0,1.0073792934417725,215,215)" opacity="1" style="display: block;"><g opacity="1" transform="matrix(1,0,0,1,0,0)"><path class="secondary" fill="rgb(75,179,253)" fill-opacity="1" d=" M0,-167.01800537109375 C92.24199676513672,-167.01800537109375 167.01800537109375,-92.24199676513672 167.01800537109375,0 C167.01800537109375,92.24199676513672 92.24199676513672,167.0189971923828 0,167.0189971923828 C-92.24199676513672,167.0189971923828 -167.01800537109375,92.24199676513672 -167.01800537109375,0 C-167.01800537109375,-92.24199676513672 -92.24199676513672,-167.01800537109375 0,-167.01800537109375z"/></g><g opacity="1" transform="matrix(1,0,0,1,-135.125,53.125)" style="mix-blend-mode: multiply;"><path class="secondary" fill="rgb(75,179,253)" fill-opacity="0.5" d=" M170.14599609375,99.07099914550781 C186.78199768066406,99.07099914550781 202.85000610351562,96.63899993896484 218.01400756835938,92.11000061035156 C193.61599731445312,106.05699920654297 165.36199951171875,114.02799987792969 135.24600219726562,114.02799987792969 C43.00400161743164,114.02799987792969 -31.77199935913086,39.250999450683594 -31.77199935913086,-52.99100112915039 C-31.77199935913086,-128.5959930419922 18.464000701904297,-192.46800231933594 87.37799835205078,-213.04800415039062 C37.04800033569336,-184.27699279785156 3.127000093460083,-130.07400512695312 3.127000093460083,-67.947998046875 C3.127000093460083,24.29400062561035 77.90399932861328,99.07099914550781 170.14599609375,99.07099914550781z"/></g></g><g transform="matrix(1,0,0,1,210.10699462890625,220)" opacity="1" style="display: block;"/><g mask="url(#__lottie_element_18_1)" style="display: block;"><g transform="matrix(1,0,0,1,214.6439971923828,215)" opacity="1"><g opacity="1" transform="matrix(1,0,0,1,0,0)"><path class="primary" fill="rgb(235,230,239)" fill-opacity="1" d=" M65.35700225830078,-102.19100189208984 C65.35700225830078,-103.48500061035156 64.30799865722656,-104.53399658203125 63.013999938964844,-104.53399658203125 C63.013999938964844,-104.53399658203125 17.36199951171875,-104.68900299072266 17.36199951171875,-104.68900299072266 C-8.519000053405762,-104.125 -40.14400100708008,-72.75 -39.58100128173828,-44.45500183105469 C-39.58100128173828,-44.45500183105469 -39.45899963378906,5.343999862670898 -39.45899963378906,5.343999862670898 C-39.45899963378906,5.343999862670898 -77.27799987792969,5.311999797821045 -77.27799987792969,5.311999797821045 C-78.5719985961914,5.311999797821045 -79.62200164794922,6.361999988555908 -79.62200164794922,7.656000137329102 C-79.62200164794922,7.656000137329102 -79.64299774169922,57.24599838256836 -79.64299774169922,57.24599838256836 C-79.64299774169922,58.540000915527344 -78.14800262451172,59.983001708984375 -76.85399627685547,59.983001708984375 C-76.85399627685547,59.983001708984375 -39.47200012207031,59.99700164794922 -39.47200012207031,59.99700164794922 C-39.47200012207031,59.99700164794922 -39.361000061035156,201.48399353027344 -39.361000061035156,201.48399353027344 C-39.361000061035156,201.4239959716797 -38.3120002746582,201.375 -37.018001556396484,201.375 C-37.018001556396484,201.375 12.824000358581543,201.3769989013672 12.824000358581543,201.3769989013672 C14.118000030517578,201.3769989013672 15.168000221252441,201.42599487304688 15.168000221252441,201.48599243164062 C15.168000221252441,201.48599243164062 15.0600004196167,60.01100158691406 15.0600004196167,60.01100158691406 C15.0600004196167,60.01100158691406 52.72100067138672,60.15299987792969 52.72100067138672,60.15299987792969 C53.77799987792969,60.15299987792969 54.678001403808594,59.32099914550781 54.95600128173828,58.30099868774414 C54.95600128173828,58.30099868774414 69.1989974975586,8.39799976348877 69.1989974975586,8.39799976348877 C69.60600280761719,6.9070000648498535 68.48300170898438,5.438000202178955 66.93800354003906,5.438000202178955 C66.93800354003906,5.438000202178955 15.069999694824219,5.276000022888184 15.069999694824219,5.276000022888184 C15.069999694824219,5.276000022888184 15.031000137329102,-33.40399932861328 15.031000137329102,-33.40399932861328 C15.031000137329102,-42.03300094604492 22.007999420166016,-50.15299987792969 30.636999130249023,-50.15299987792969 C30.636999130249023,-50.15299987792969 63.069000244140625,-50.15599822998047 63.069000244140625,-50.15599822998047 C64.36299896240234,-50.15599822998047 65.41200256347656,-51.20500183105469 65.41200256347656,-52.499000549316406 C65.41200256347656,-52.499000549316406 65.35700225830078,-102.19100189208984 65.35700225830078,-102.19100189208984z"/></g><g opacity="1" transform="matrix(1,0,0,1,-22.5,0)" style="mix-blend-mode: multiply;"><path class="primary" fill="rgb(235,230,239)" fill-opacity="0.5" d=" M12.75100040435791,5.089000225067139 C12.75100040435791,5.089000225067139 -16.81100082397461,5.10699987411499 -16.81100082397461,5.10699987411499 C-16.81100082397461,5.10699987411499 -16.981000900268555,-44.375 -16.981000900268555,-44.375 C-17.64699935913086,-65.625 4.980999946594238,-101.5 39.875999450683594,-104.375 C39.875999450683594,-104.375 74.8759994506836,-104.375 74.8759994506836,-104.375 C36.215999603271484,-104.375 13.270999908447266,-71.14299774169922 12.687000274658203,-45.518001556396484 C12.687000274658203,-45.518001556396484 12.75100040435791,5.089000225067139 12.75100040435791,5.089000225067139z M-27.0939998626709,5.308000087738037 C-27.0939998626709,5.308000087738037 -27.29199981689453,59.972999572753906 -27.29199981689453,59.972999572753906 C-27.29199981689453,59.972999572753906 -53.91699981689453,60.0359992980957 -53.91699981689453,60.0359992980957 C-55.57400131225586,60.0359992980957 -57.112998962402344,58.73699951171875 -57.112998962402344,57.08000183105469 C-57.112998962402344,57.08000183105469 -57.125999450683594,8.21399974822998 -57.125999450683594,8.21399974822998 C-57.125999450683594,6.557000160217285 -55.78300094604492,5.214000225067139 -54.125999450683594,5.214000225067139 C-54.125999450683594,5.214000225067139 -27.0939998626709,5.308000087738037 -27.0939998626709,5.308000087738037z M13.480999946594238,59.5359992980957 C13.480999946594238,59.5359992980957 12.989999771118164,201.3780059814453 12.989999771118164,201.3780059814453 C12.989999771118164,201.3780059814453 -14.385000228881836,201.375 -14.385000228881836,201.375 C-16.04199981689453,201.375 -16.89699935913086,201.4149932861328 -16.82200050354004,201.47900390625 C-16.82200050354004,201.47900390625 -16.768999099731445,59.5359992980957 -16.768999099731445,59.5359992980957 C-16.768999099731445,59.5359992980957 13.480999946594238,59.5359992980957 13.480999946594238,59.5359992980957z"/></g></g></g></g></g></svg>