<svg xmlns="http://www.w3.org/2000/svg" xmlns:xlink="http://www.w3.org/1999/xlink" viewBox="0 0 430 430" width="430" height="430" preserveAspectRatio="xMidYMid meet" style="width: 100%; height: 100%; transform: translate3d(0px, 0px, 0px); content-visibility: visible;"><defs><clipPath id="__lottie_element_2"><rect width="430" height="430" x="0" y="0"/></clipPath><clipPath id="__lottie_element_4"><path d="M0,0 L430,0 L430,430 L0,430z"/></clipPath><clipPath id="__lottie_element_10"><path d="M0,0 L1192,0 L1192,430 L0,430z"/></clipPath><g id="__lottie_element_13"><g transform="matrix(1,0.000005924357083131326,-0.000005924357083131326,1,215.00050354003906,215)" opacity="1" style="display: block;"><g opacity="1" transform="matrix(1,0,0,1,0,0)"><path fill="rgb(255,0,0)" fill-opacity="1" d=" M-100,-130 C-100,-130 100,-130 100,-130 C116.56900024414062,-130 130,-116.56900024414062 130,-100 C130,-100 130,100 130,100 C130,116.56900024414062 116.56900024414062,130 100,130 C100,130 -100,130 -100,130 C-116.56900024414062,130 -130,116.56900024414062 -130,100 C-130,100 -130,-100 -130,-100 C-130,-116.56900024414062 -116.56900024414062,-130 -100,-130z M-160,-100 C-160,-100 -160,100 -160,100 C-160,133.13699340820312 -133.13699340820312,160 -100,160 C-100,160 100,160 100,160 C133.13699340820312,160 160,133.13699340820312 160,100 C160,100 160,-100 160,-100 C160,-133.13699340820312 133.13699340820312,-160 100,-160 C100,-160 -100,-160 -100,-160 C-133.13699340820312,-160 -160,-133.13699340820312 -160,-100z"/></g><g opacity="1" transform="matrix(1,0,0,1,0,0)"><path fill="rgb(255,0,0)" fill-opacity="1" d=" M55,0 C55,30.375999450683594 30.375999450683594,55 0,55 C-30.375999450683594,55 -55,30.375999450683594 -55,0 C-55,-30.375999450683594 -30.375999450683594,-55 0,-55 C30.375999450683594,-55 55,-30.375999450683594 55,0z M85,0 C85,-46.944000244140625 46.944000244140625,-85 0,-85 C-46.944000244140625,-85 -85,-46.944000244140625 -85,0 C-85,46.944000244140625 -46.944000244140625,85 0,85 C46.944000244140625,85 85,46.944000244140625 85,0z"/></g></g></g><clipPath id="__lottie_element_17"><path d="M0,0 L1192,0 L1192,430 L0,430z"/></clipPath><g id="__lottie_element_20"><g transform="matrix(1,0.000005924357083131326,-0.000005924357083131326,1,215.00050354003906,215)" opacity="1" style="display: block;"><g opacity="1" transform="matrix(1,0,0,1,0,0)"><path fill="url(#__lottie_element_23)" fill-opacity="1" d=" M105,-90 C105,-98.28399658203125 98.28399658203125,-105 90,-105 C81.71600341796875,-105 75,-98.28399658203125 75,-90 C75,-81.71600341796875 81.71600341796875,-75 90,-75 C98.28399658203125,-75 105,-81.71600341796875 105,-90z"/></g></g></g><linearGradient id="__lottie_element_23" spreadMethod="pad" gradientUnits="userSpaceOnUse" x1="-147.03900146484375" y1="-160" x2="127.10700225830078" y2="150.48699951171875"><stop offset="0%" stop-color="rgb(255,255,255)"/><stop offset="100%" stop-color="rgb(0,0,0)"/></linearGradient><mask id="__lottie_element_20_1" mask-type="alpha"><use xmlns:ns1="http://www.w3.org/1999/xlink" ns1:href="#__lottie_element_20"/></mask><mask id="__lottie_element_13_1" mask-type="alpha"><use xmlns:ns2="http://www.w3.org/1999/xlink" ns2:href="#__lottie_element_13"/></mask><filter id="__lottie_element_26" x="-100%" y="-100%" width="300%" height="300%"><feGaussianBlur result="filter_result_0" stdDeviation="31.5 31.5" edgeMode="wrap"/></filter><filter id="__lottie_element_29" x="-100%" y="-100%" width="300%" height="300%"><feGaussianBlur result="filter_result_0" stdDeviation="31.5 31.5" edgeMode="wrap"/></filter><filter id="__lottie_element_32" x="-100%" y="-100%" width="300%" height="300%"><feGaussianBlur result="filter_result_0" stdDeviation="31.5 31.5" edgeMode="wrap"/></filter><filter id="__lottie_element_35" x="-100%" y="-100%" width="300%" height="300%"><feGaussianBlur result="filter_result_0" stdDeviation="31.5 31.5" edgeMode="wrap"/></filter><filter id="__lottie_element_38" x="-100%" y="-100%" width="300%" height="300%"><feGaussianBlur result="filter_result_0" stdDeviation="31.5 31.5" edgeMode="wrap"/></filter><filter id="__lottie_element_41" x="-100%" y="-100%" width="300%" height="300%"><feGaussianBlur result="filter_result_0" stdDeviation="31.5 31.5" edgeMode="wrap"/></filter></defs><g clip-path="url(#__lottie_element_2)"><g clip-path="url(#__lottie_element_4)" transform="matrix(1,0,0,1,0,0)" opacity="1" style="display: block;"><g mask="url(#__lottie_element_13_1)" style="display: block;"><g clip-path="url(#__lottie_element_10)" transform="matrix(0.7071067690849304,0.7071067690849304,-0.7071067690849304,0.7071067690849304,-54.407684326171875,-358.463623046875)" opacity="1"><g filter="url(#__lottie_element_26)" transform="matrix(1.0162999629974365,0,0,1,596,215)" opacity="1" style="display: block;"><g opacity="1" transform="matrix(1,0,0,1,0,0)"><path class="tertiary" fill="rgb(255,199,56)" fill-opacity="1" d=" M214.75,-215 C214.75,-215 214.75,215 214.75,215 C214.75,215 107.25,215 107.25,215 C107.25,215 107.25,-215 107.25,-215 C107.25,-215 214.75,-215 214.75,-215z"/></g><g opacity="1" transform="matrix(1,0,0,1,-108,0)"><path class="tertiary" fill="rgb(255,199,56)" fill-opacity="1" d=" M215.75,-215 C215.75,-215 215.75,215 215.75,215 C215.75,215 106.25,215 106.25,215 C106.25,215 106.25,-215 106.25,-215 C106.25,-215 215.75,-215 215.75,-215z"/></g><g opacity="1" transform="matrix(1,0,0,1,-215,0)"><path class="secondary" fill="rgb(242,139,168)" fill-opacity="1" d=" M214.75,-215 C214.75,-215 214.75,215 214.75,215 C214.75,215 107.25,215 107.25,215 C107.25,215 107.25,-215 107.25,-215 C107.25,-215 214.75,-215 214.75,-215z"/></g><g opacity="1" transform="matrix(1,0,0,1,-323,0)"><path class="primary" fill="rgb(75,179,253)" fill-opacity="1" d=" M216.75,-215 C216.75,-215 216.75,215 216.75,215 C216.75,215 105.25,215 105.25,215 C105.25,215 105.25,-215 105.25,-215 C105.25,-215 216.75,-215 216.75,-215z"/></g></g><g filter="url(#__lottie_element_29)" transform="matrix(-1.0162999629974365,0,0,1,978,215)" opacity="1" style="display: block;"><g opacity="1" transform="matrix(1,0,0,1,0,0)"><path class="tertiary" fill="rgb(255,199,56)" fill-opacity="1" d=" M214.75,-215 C214.75,-215 214.75,215 214.75,215 C214.75,215 107.25,215 107.25,215 C107.25,215 107.25,-215 107.25,-215 C107.25,-215 214.75,-215 214.75,-215z"/></g><g opacity="1" transform="matrix(1,0,0,1,-108,0)"><path class="tertiary" fill="rgb(255,199,56)" fill-opacity="1" d=" M215.75,-215 C215.75,-215 215.75,215 215.75,215 C215.75,215 106.25,215 106.25,215 C106.25,215 106.25,-215 106.25,-215 C106.25,-215 215.75,-215 215.75,-215z"/></g><g opacity="1" transform="matrix(1,0,0,1,-215,0)"><path class="secondary" fill="rgb(242,139,168)" fill-opacity="1" d=" M214.75,-215 C214.75,-215 214.75,215 214.75,215 C214.75,215 107.25,215 107.25,215 C107.25,215 107.25,-215 107.25,-215 C107.25,-215 214.75,-215 214.75,-215z"/></g><g opacity="1" transform="matrix(1,0,0,1,-323,0)"><path class="primary" fill="rgb(75,179,253)" fill-opacity="1" d=" M216.75,-215 C216.75,-215 216.75,215 216.75,215 C216.75,215 105.25,215 105.25,215 C105.25,215 105.25,-215 105.25,-215 C105.25,-215 216.75,-215 216.75,-215z"/></g></g><g filter="url(#__lottie_element_32)" transform="matrix(-1.0162999629974365,0,0,1,217,215)" opacity="1" style="display: block;"><g opacity="1" transform="matrix(1,0,0,1,0,0)"><path class="tertiary" fill="rgb(255,199,56)" fill-opacity="1" d=" M214.75,-215 C214.75,-215 214.75,215 214.75,215 C214.75,215 107.25,215 107.25,215 C107.25,215 107.25,-215 107.25,-215 C107.25,-215 214.75,-215 214.75,-215z"/></g><g opacity="1" transform="matrix(1,0,0,1,-108,0)"><path class="tertiary" fill="rgb(255,199,56)" fill-opacity="1" d=" M215.75,-215 C215.75,-215 215.75,215 215.75,215 C215.75,215 106.25,215 106.25,215 C106.25,215 106.25,-215 106.25,-215 C106.25,-215 215.75,-215 215.75,-215z"/></g><g opacity="1" transform="matrix(1,0,0,1,-215,0)"><path class="secondary" fill="rgb(242,139,168)" fill-opacity="1" d=" M214.75,-215 C214.75,-215 214.75,215 214.75,215 C214.75,215 107.25,215 107.25,215 C107.25,215 107.25,-215 107.25,-215 C107.25,-215 214.75,-215 214.75,-215z"/></g><g opacity="1" transform="matrix(1,0,0,1,-323,0)"><path class="primary" fill="rgb(75,179,253)" fill-opacity="1" d=" M216.75,-215 C216.75,-215 216.75,215 216.75,215 C216.75,215 105.25,215 105.25,215 C105.25,215 105.25,-215 105.25,-215 C105.25,-215 216.75,-215 216.75,-215z"/></g></g></g></g><g mask="url(#__lottie_element_20_1)" style="display: block;"><g clip-path="url(#__lottie_element_17)" transform="matrix(0.7071067690849304,0.7071067690849304,-0.7071067690849304,0.7071067690849304,-54.407684326171875,-358.463623046875)" opacity="1"><g filter="url(#__lottie_element_35)" transform="matrix(1.0162999629974365,0,0,1,596,215)" opacity="1" style="display: block;"><g opacity="1" transform="matrix(1,0,0,1,0,0)"><path class="tertiary" fill="rgb(255,199,56)" fill-opacity="1" d=" M214.75,-215 C214.75,-215 214.75,215 214.75,215 C214.75,215 107.25,215 107.25,215 C107.25,215 107.25,-215 107.25,-215 C107.25,-215 214.75,-215 214.75,-215z"/></g><g opacity="1" transform="matrix(1,0,0,1,-108,0)"><path class="tertiary" fill="rgb(255,199,56)" fill-opacity="1" d=" M215.75,-215 C215.75,-215 215.75,215 215.75,215 C215.75,215 106.25,215 106.25,215 C106.25,215 106.25,-215 106.25,-215 C106.25,-215 215.75,-215 215.75,-215z"/></g><g opacity="1" transform="matrix(1,0,0,1,-215,0)"><path class="secondary" fill="rgb(242,139,168)" fill-opacity="1" d=" M214.75,-215 C214.75,-215 214.75,215 214.75,215 C214.75,215 107.25,215 107.25,215 C107.25,215 107.25,-215 107.25,-215 C107.25,-215 214.75,-215 214.75,-215z"/></g><g opacity="1" transform="matrix(1,0,0,1,-323,0)"><path class="primary" fill="rgb(75,179,253)" fill-opacity="1" d=" M216.75,-215 C216.75,-215 216.75,215 216.75,215 C216.75,215 105.25,215 105.25,215 C105.25,215 105.25,-215 105.25,-215 C105.25,-215 216.75,-215 216.75,-215z"/></g></g><g filter="url(#__lottie_element_38)" transform="matrix(-1.0162999629974365,0,0,1,978,215)" opacity="1" style="display: block;"><g opacity="1" transform="matrix(1,0,0,1,0,0)"><path class="tertiary" fill="rgb(255,199,56)" fill-opacity="1" d=" M214.75,-215 C214.75,-215 214.75,215 214.75,215 C214.75,215 107.25,215 107.25,215 C107.25,215 107.25,-215 107.25,-215 C107.25,-215 214.75,-215 214.75,-215z"/></g><g opacity="1" transform="matrix(1,0,0,1,-108,0)"><path class="tertiary" fill="rgb(255,199,56)" fill-opacity="1" d=" M215.75,-215 C215.75,-215 215.75,215 215.75,215 C215.75,215 106.25,215 106.25,215 C106.25,215 106.25,-215 106.25,-215 C106.25,-215 215.75,-215 215.75,-215z"/></g><g opacity="1" transform="matrix(1,0,0,1,-215,0)"><path class="secondary" fill="rgb(242,139,168)" fill-opacity="1" d=" M214.75,-215 C214.75,-215 214.75,215 214.75,215 C214.75,215 107.25,215 107.25,215 C107.25,215 107.25,-215 107.25,-215 C107.25,-215 214.75,-215 214.75,-215z"/></g><g opacity="1" transform="matrix(1,0,0,1,-323,0)"><path class="primary" fill="rgb(75,179,253)" fill-opacity="1" d=" M216.75,-215 C216.75,-215 216.75,215 216.75,215 C216.75,215 105.25,215 105.25,215 C105.25,215 105.25,-215 105.25,-215 C105.25,-215 216.75,-215 216.75,-215z"/></g></g><g filter="url(#__lottie_element_41)" transform="matrix(-1.0162999629974365,0,0,1,217,215)" opacity="1" style="display: block;"><g opacity="1" transform="matrix(1,0,0,1,0,0)"><path class="tertiary" fill="rgb(255,199,56)" fill-opacity="1" d=" M214.75,-215 C214.75,-215 214.75,215 214.75,215 C214.75,215 107.25,215 107.25,215 C107.25,215 107.25,-215 107.25,-215 C107.25,-215 214.75,-215 214.75,-215z"/></g><g opacity="1" transform="matrix(1,0,0,1,-108,0)"><path class="tertiary" fill="rgb(255,199,56)" fill-opacity="1" d=" M215.75,-215 C215.75,-215 215.75,215 215.75,215 C215.75,215 106.25,215 106.25,215 C106.25,215 106.25,-215 106.25,-215 C106.25,-215 215.75,-215 215.75,-215z"/></g><g opacity="1" transform="matrix(1,0,0,1,-215,0)"><path class="secondary" fill="rgb(242,139,168)" fill-opacity="1" d=" M214.75,-215 C214.75,-215 214.75,215 214.75,215 C214.75,215 107.25,215 107.25,215 C107.25,215 107.25,-215 107.25,-215 C107.25,-215 214.75,-215 214.75,-215z"/></g><g opacity="1" transform="matrix(1,0,0,1,-323,0)"><path class="primary" fill="rgb(75,179,253)" fill-opacity="1" d=" M216.75,-215 C216.75,-215 216.75,215 216.75,215 C216.75,215 105.25,215 105.25,215 C105.25,215 105.25,-215 105.25,-215 C105.25,-215 216.75,-215 216.75,-215z"/></g></g></g></g></g></g></svg>