<svg xmlns="http://www.w3.org/2000/svg" xmlns:xlink="http://www.w3.org/1999/xlink" viewBox="0 0 430 430" width="430" height="430" preserveAspectRatio="xMidYMid meet" style="width: 100%; height: 100%; transform: translate3d(0px, 0px, 0px); content-visibility: visible;"><defs><clipPath id="__lottie_element_2"><rect width="430" height="430" x="0" y="0"/></clipPath><clipPath id="__lottie_element_4"><path d="M0,0 L430,0 L430,430 L0,430z"/></clipPath><g id="__lottie_element_14"><g transform="matrix(1,0,0,1,260,215)" opacity="1" style="display: block;"><g opacity="1" transform="matrix(1,0,0,1,0,0)"><path fill="rgb(235,230,239)" fill-opacity="1" d=" M148.5034637451172,-68.52154541015625 C148.5034637451172,-68.52154541015625 148.5034637451172,68.52154541015625 148.5034637451172,68.52154541015625 C148.5034637451172,112.66356658935547 112.66356658935547,148.5034637451172 68.52154541015625,148.5034637451172 C68.52154541015625,148.5034637451172 -68.52154541015625,148.5034637451172 -68.52154541015625,148.5034637451172 C-112.66356658935547,148.5034637451172 -148.5034637451172,112.66356658935547 -148.5034637451172,68.52154541015625 C-148.5034637451172,68.52154541015625 -148.5034637451172,-68.52154541015625 -148.5034637451172,-68.52154541015625 C-148.5034637451172,-112.66356658935547 -112.66356658935547,-148.5034637451172 -68.52154541015625,-148.5034637451172 C-68.52154541015625,-148.5034637451172 68.52154541015625,-148.5034637451172 68.52154541015625,-148.5034637451172 C112.66356658935547,-148.5034637451172 148.5034637451172,-112.66356658935547 148.5034637451172,-68.52154541015625z"/></g></g></g><g id="__lottie_element_17"><g transform="matrix(1,0,0,1,214.99600219726562,215)" opacity="1" style="display: none;"><g opacity="1" transform="matrix(1,0,0,1,0,0)"><path class="secondary" fill="rgb(58,51,71)" fill-opacity="1" d=" M-56.33633041381836,-98.1056900024414 C-56.758331298828125,-98.66868591308594 -57.421329498291016,-99 -58.12533187866211,-99 C-58.12533187866211,-99 -86.77804565429688,-99 -86.77804565429688,-99 C-88.62104797363281,-99 -89.67304992675781,-96.89600372314453 -88.56704711914062,-95.4219970703125 C-88.56704711914062,-95.4219970703125 58.20295333862305,99.6050033569336 58.20295333862305,99.6050033569336 C58.62495422363281,100.16799926757812 59.2879524230957,100.49931335449219 59.99195098876953,100.49931335449219 C59.99195098876953,100.49931335449219 88.64466857910156,100.49931335449219 88.64466857910156,100.49931335449219 C90.4876708984375,100.49931335449219 91.5396728515625,98.39530944824219 90.43367004394531,96.92131042480469 C90.43367004394531,96.92131042480469 -56.33633041381836,-98.1056900024414 -56.33633041381836,-98.1056900024414z"/></g></g></g><g id="__lottie_element_20"><g transform="matrix(1,0,0,1,214.99600219726562,215)" opacity="1" style="display: none;"><g opacity="1" transform="matrix(1,0,0,1,0,0)"><path class="secondary" fill="rgb(58,51,71)" fill-opacity="1" d=" M-56.33633041381836,-98.1056900024414 C-56.758331298828125,-98.66868591308594 -57.421329498291016,-99 -58.12533187866211,-99 C-58.12533187866211,-99 -86.77804565429688,-99 -86.77804565429688,-99 C-88.62104797363281,-99 -89.67304992675781,-96.89600372314453 -88.56704711914062,-95.4219970703125 C-88.56704711914062,-95.4219970703125 58.20295333862305,99.6050033569336 58.20295333862305,99.6050033569336 C58.62495422363281,100.16799926757812 59.2879524230957,100.49931335449219 59.99195098876953,100.49931335449219 C59.99195098876953,100.49931335449219 88.64466857910156,100.49931335449219 88.64466857910156,100.49931335449219 C90.4876708984375,100.49931335449219 91.5396728515625,98.39530944824219 90.43367004394531,96.92131042480469 C90.43367004394531,96.92131042480469 -56.33633041381836,-98.1056900024414 -56.33633041381836,-98.1056900024414z"/></g></g></g><g id="__lottie_element_32"><g style="display: block;" transform="matrix(1,0,0,1,214.99600219726562,215)" opacity="1"><g opacity="1" transform="matrix(1,0,0,1,0,0)"><path class="secondary" fill="rgb(58,51,71)" fill-opacity="1" d=" M-73.67361450195312,80.12918853759766 C-73.67361450195312,80.12918853759766 63.9742431640625,-82.06436920166016 63.9742431640625,-82.06436920166016 C63.9742431640625,-82.06436920166016 81.21746063232422,-82.06436920166016 81.21746063232422,-82.06436920166016 C81.21746063232422,-82.06436920166016 -56.4345703125,80.12918853759766 -56.4345703125,80.12918853759766 C-56.4345703125,80.12918853759766 -73.67361450195312,80.12918853759766 -73.67361450195312,80.12918853759766z"/></g></g></g><filter id="__lottie_element_35" filterUnits="objectBoundingBox" x="0%" y="0%" width="100%" height="100%"><feComponentTransfer in="SourceGraphic"><feFuncA type="table" tableValues="1.0 0.0"/></feComponentTransfer></filter><mask id="__lottie_element_32_2" mask-type="alpha"><g filter="url(#__lottie_element_35)"><rect width="430" height="430" x="0" y="0" fill="#ffffff" opacity="0"/><use xmlns:ns1="http://www.w3.org/1999/xlink" ns1:href="#__lottie_element_32"/></g></mask><filter id="__lottie_element_36" filterUnits="objectBoundingBox" x="0%" y="0%" width="100%" height="100%"><feComponentTransfer in="SourceGraphic"><feFuncA type="table" tableValues="1.0 0.0"/></feComponentTransfer></filter><mask id="__lottie_element_14_2" mask-type="alpha"><g filter="url(#__lottie_element_36)"><rect width="430" height="430" x="0" y="0" fill="#ffffff" opacity="0"/><use xmlns:ns2="http://www.w3.org/1999/xlink" ns2:href="#__lottie_element_14"/></g></mask><filter id="__lottie_element_76" filterUnits="objectBoundingBox" x="0%" y="0%" width="100%" height="100%"><feComponentTransfer in="SourceGraphic"><feFuncA type="table" tableValues="1.0 0.0"/></feComponentTransfer></filter><mask id="__lottie_element_17_2" mask-type="alpha"><g filter="url(#__lottie_element_76)"><rect width="430" height="430" x="0" y="0" fill="#ffffff" opacity="0"/><use xmlns:ns3="http://www.w3.org/1999/xlink" ns3:href="#__lottie_element_17"/></g></mask><filter id="__lottie_element_80" filterUnits="objectBoundingBox" x="0%" y="0%" width="100%" height="100%"><feComponentTransfer in="SourceGraphic"><feFuncA type="table" tableValues="1.0 0.0"/></feComponentTransfer></filter><mask id="__lottie_element_20_2" mask-type="alpha"><g filter="url(#__lottie_element_80)"><rect width="430" height="430" x="0" y="0" fill="#ffffff" opacity="0"/><use xmlns:ns4="http://www.w3.org/1999/xlink" ns4:href="#__lottie_element_20"/></g></mask><g id="__lottie_element_106"><g transform="matrix(1,0,0,1,214.99600219726562,215)" opacity="1" style="display: none;"><g opacity="1" transform="matrix(1,0,0,1,0,0)"><path class="secondary" fill="rgb(58,51,71)" fill-opacity="1" d=" M51.19679260253906,80.08999633789062 C51.19679260253906,80.08999633789062 -70.81453704833984,-80.58999633789062 -70.81453704833984,-80.58999633789062 C-70.81453704833984,-80.58999633789062 -51.0634651184082,-80.58999633789062 -51.0634651184082,-80.58999633789062 C-51.0634651184082,-80.58999633789062 70.94620513916016,80.08999633789062 70.94620513916016,80.08999633789062 C70.94620513916016,80.08999633789062 51.19679260253906,80.08999633789062 51.19679260253906,80.08999633789062z"/></g></g></g><filter id="__lottie_element_109" filterUnits="objectBoundingBox" x="0%" y="0%" width="100%" height="100%"><feComponentTransfer in="SourceGraphic"><feFuncA type="table" tableValues="1.0 0.0"/></feComponentTransfer></filter><mask id="__lottie_element_106_2" mask-type="alpha"><g filter="url(#__lottie_element_109)"><rect width="430" height="430" x="0" y="0" fill="#ffffff" opacity="0"/><use xmlns:ns5="http://www.w3.org/1999/xlink" ns5:href="#__lottie_element_106"/></g></mask></defs><g clip-path="url(#__lottie_element_2)"><g clip-path="url(#__lottie_element_4)" transform="matrix(1,0,0,1,0,0)" opacity="1" style="display: block;"><g transform="matrix(1,0,0,1,215,215)" opacity="1" style="display: block;"><g opacity="1" transform="matrix(1,0,0,1,0,0)"><path class="secondary" fill="rgb(235,230,239)" fill-opacity="1" d=" M148.5034637451172,-68.52154541015625 C148.5034637451172,-68.52154541015625 148.5034637451172,68.52154541015625 148.5034637451172,68.52154541015625 C148.5034637451172,112.66356658935547 112.66356658935547,148.5034637451172 68.52154541015625,148.5034637451172 C68.52154541015625,148.5034637451172 -68.52154541015625,148.5034637451172 -68.52154541015625,148.5034637451172 C-112.66356658935547,148.5034637451172 -148.5034637451172,112.66356658935547 -148.5034637451172,68.52154541015625 C-148.5034637451172,68.52154541015625 -148.5034637451172,-68.52154541015625 -148.5034637451172,-68.52154541015625 C-148.5034637451172,-112.66356658935547 -112.66356658935547,-148.5034637451172 -68.52154541015625,-148.5034637451172 C-68.52154541015625,-148.5034637451172 68.52154541015625,-148.5034637451172 68.52154541015625,-148.5034637451172 C112.66356658935547,-148.5034637451172 148.5034637451172,-112.66356658935547 148.5034637451172,-68.52154541015625z"/></g></g><g mask="url(#__lottie_element_14_2)" style="mix-blend-mode: multiply; display: block;"><g transform="matrix(1,0,0,1,215,215)" opacity="0.5"><g opacity="1" transform="matrix(1,0,0,1,0,0)"><path class="secondary" fill="rgb(235,230,239)" fill-opacity="1" d=" M148.5034637451172,-68.52154541015625 C148.5034637451172,-68.52154541015625 148.5034637451172,68.52154541015625 148.5034637451172,68.52154541015625 C148.5034637451172,112.66356658935547 112.66356658935547,148.5034637451172 68.52154541015625,148.5034637451172 C68.52154541015625,148.5034637451172 -68.52154541015625,148.5034637451172 -68.52154541015625,148.5034637451172 C-112.66356658935547,148.5034637451172 -148.5034637451172,112.66356658935547 -148.5034637451172,68.52154541015625 C-148.5034637451172,68.52154541015625 -148.5034637451172,-68.52154541015625 -148.5034637451172,-68.52154541015625 C-148.5034637451172,-112.66356658935547 -112.66356658935547,-148.5034637451172 -68.52154541015625,-148.5034637451172 C-68.52154541015625,-148.5034637451172 68.52154541015625,-148.5034637451172 68.52154541015625,-148.5034637451172 C112.66356658935547,-148.5034637451172 148.5034637451172,-112.66356658935547 148.5034637451172,-68.52154541015625z"/></g></g></g><g mask="url(#__lottie_element_17_2)" style="display: none;"><g transform="matrix(1,0,0,1,214.99600219726562,215)" opacity="1"><g opacity="1" transform="matrix(1,0,0,1,0,0)"><path class="primary" fill="rgb(58,51,71)" fill-opacity="1" d=" M-75.96902465820312,80.19921112060547 C-75.96902465820312,80.19921112060547 70.00347900390625,-81.92744445800781 70.00347900390625,-81.92744445800781 C70.00347900390625,-81.92744445800781 81.56671905517578,-81.92744445800781 81.56671905517578,-81.92744445800781 C81.56671905517578,-81.92744445800781 -64.4156265258789,80.19921112060547 -64.4156265258789,80.19921112060547 C-64.4156265258789,80.19921112060547 -75.96902465820312,80.19921112060547 -75.96902465820312,80.19921112060547z M115.48175811767578,-97.61219024658203 C115.70793914794922,-98.65181732177734 115.11524200439453,-100.08209991455078 114.41123962402344,-100.08209991455078 C114.41123962402344,-100.08209991455078 70.82353210449219,-100.22401428222656 70.82353210449219,-100.22401428222656 C68.98052978515625,-100.22401428222656 67.02340698242188,-98.85539245605469 65.40953063964844,-96.47745513916016 C65.40953063964844,-96.47745513916016 -112.3807144165039,98.44337463378906 -112.3807144165039,98.44337463378906 C-111.9587173461914,99.00637817382812 -111.57205200195312,100.49811553955078 -110.86805725097656,100.49811553955078 C-110.86805725097656,100.49811553955078 -64.37382507324219,100.49811553955078 -64.37382507324219,100.49811553955078 C-62.530826568603516,100.49811553955078 -61.93682861328125,99.87455749511719 -61.8978271484375,98.73255920410156 C-61.8978271484375,98.73255920410156 115.48175811767578,-97.61219024658203 115.48175811767578,-97.61219024658203z"/></g><g opacity="1" transform="matrix(1,0,0,1,-25.687999725341797,0)" style="mix-blend-mode: multiply;"><path class="primary" fill="rgb(58,51,71)" fill-opacity="0.5" d=" M-86.67471313476562,98.44337463378906 C-86.25271606445312,99.00637817382812 -85.86605834960938,100.49811553955078 -85.16205596923828,100.49811553955078 C-85.16205596923828,100.49811553955078 -62.93037796020508,100.4961166381836 -62.93037796020508,100.4961166381836 C-62.93037796020508,100.4961166381836 -44.31752395629883,80.19921112060547 -44.31752395629883,80.19921112060547 C-44.31752395629883,80.19921112060547 -50.2709846496582,80.19921112060547 -50.2709846496582,80.19921112060547 C-50.2709846496582,80.19921112060547 95.70207977294922,-81.92744445800781 95.70207977294922,-81.92744445800781 C95.70207977294922,-81.92744445800781 101.660400390625,-81.92744445800781 101.660400390625,-81.92744445800781 C101.660400390625,-81.92744445800781 116.2708511352539,-100.0909423828125 116.2708511352539,-100.0909423828125 C116.2708511352539,-100.0909423828125 96.52953338623047,-100.22401428222656 96.52953338623047,-100.22401428222656 C94.68653106689453,-100.22401428222656 92.80754852294922,-98.8279800415039 91.11553192138672,-96.47745513916016 C91.11553192138672,-96.47745513916016 -86.67471313476562,98.44337463378906 -86.67471313476562,98.44337463378906z"/></g><g opacity="1" transform="matrix(1,0,0,1,0,0)"/></g></g><g mask="url(#__lottie_element_20_2)" style="display: none;"><g transform="matrix(1,0,0,1,214.99600219726562,215)" opacity="1"><g opacity="1" transform="matrix(1,0,0,1,0,0)"><path class="primary" fill="rgb(58,51,71)" fill-opacity="1" d=" M-75.96902465820312,80.19921112060547 C-75.96902465820312,80.19921112060547 70.00347900390625,-81.92744445800781 70.00347900390625,-81.92744445800781 C70.00347900390625,-81.92744445800781 81.56671905517578,-81.92744445800781 81.56671905517578,-81.92744445800781 C81.56671905517578,-81.92744445800781 -64.4156265258789,80.19921112060547 -64.4156265258789,80.19921112060547 C-64.4156265258789,80.19921112060547 -75.96902465820312,80.19921112060547 -75.96902465820312,80.19921112060547z M115.48175811767578,-97.61219024658203 C115.70793914794922,-98.65181732177734 115.11524200439453,-100.08209991455078 114.41123962402344,-100.08209991455078 C114.41123962402344,-100.08209991455078 70.82353210449219,-100.22401428222656 70.82353210449219,-100.22401428222656 C68.98052978515625,-100.22401428222656 67.02340698242188,-98.85539245605469 65.40953063964844,-96.47745513916016 C65.40953063964844,-96.47745513916016 -112.3807144165039,98.44337463378906 -112.3807144165039,98.44337463378906 C-111.9587173461914,99.00637817382812 -111.57205200195312,100.49811553955078 -110.86805725097656,100.49811553955078 C-110.86805725097656,100.49811553955078 -64.37382507324219,100.49811553955078 -64.37382507324219,100.49811553955078 C-62.530826568603516,100.49811553955078 -61.93682861328125,99.87455749511719 -61.8978271484375,98.73255920410156 C-61.8978271484375,98.73255920410156 115.48175811767578,-97.61219024658203 115.48175811767578,-97.61219024658203z"/></g><g opacity="1" transform="matrix(1,0,0,1,-25.687999725341797,0)" style="mix-blend-mode: multiply;"><path class="primary" fill="rgb(58,51,71)" fill-opacity="0.5" d=" M-86.67471313476562,98.44337463378906 C-86.25271606445312,99.00637817382812 -85.86605834960938,100.49811553955078 -85.16205596923828,100.49811553955078 C-85.16205596923828,100.49811553955078 -62.93037796020508,100.4961166381836 -62.93037796020508,100.4961166381836 C-62.93037796020508,100.4961166381836 -44.31752395629883,80.19921112060547 -44.31752395629883,80.19921112060547 C-44.31752395629883,80.19921112060547 -50.2709846496582,80.19921112060547 -50.2709846496582,80.19921112060547 C-50.2709846496582,80.19921112060547 95.70207977294922,-81.92744445800781 95.70207977294922,-81.92744445800781 C95.70207977294922,-81.92744445800781 101.660400390625,-81.92744445800781 101.660400390625,-81.92744445800781 C101.660400390625,-81.92744445800781 116.2708511352539,-100.0909423828125 116.2708511352539,-100.0909423828125 C116.2708511352539,-100.0909423828125 96.52953338623047,-100.22401428222656 96.52953338623047,-100.22401428222656 C94.68653106689453,-100.22401428222656 92.80754852294922,-98.8279800415039 91.11553192138672,-96.47745513916016 C91.11553192138672,-96.47745513916016 -86.67471313476562,98.44337463378906 -86.67471313476562,98.44337463378906z"/></g><g opacity="1" transform="matrix(1,0,0,1,0,0)"/></g></g><g transform="matrix(1,0,0,1,214.99600219726562,215)" opacity="1" style="display: none;"><g opacity="1" transform="matrix(1,0,0,1,0,0)"><path class="primary" fill="rgb(58,51,71)" fill-opacity="1" d=" M-21.898000717163086,7.613999843597412 C-21.898000717163086,7.613999843597412 -108.34500122070312,94.29399871826172 -108.34500122070312,94.29399871826172 C-108.34500122070312,94.29399871826172 -109.21700286865234,95.13899993896484 -109.21700286865234,95.13899993896484 C-111.15299987792969,97.01499938964844 -109.82599639892578,100.29399871826172 -107.12999725341797,100.29399871826172 C-107.12999725341797,100.29399871826172 -87.3030014038086,100.29399871826172 -87.3030014038086,100.29399871826172 C-86.50700378417969,100.29399871826172 -85.74500274658203,99.97799682617188 -85.18199920654297,99.41500091552734 C-85.18199920654297,99.41500091552734 -9.776000022888184,23.777000427246094 -9.776000022888184,23.777000427246094 C-9.776000022888184,23.777000427246094 -21.898000717163086,7.613999843597412 -21.898000717163086,7.613999843597412z"/></g><g opacity="1" transform="matrix(1,0,0,1,-25.687999725341797,0)" style="mix-blend-mode: multiply;"><path class="primary" fill="rgb(58,51,71)" fill-opacity="0.5" d=" M15.937000274658203,23.777000427246094 C15.937000274658203,23.777000427246094 3.815000057220459,7.613999843597412 3.815000057220459,7.613999843597412 C3.815000057220459,7.613999843597412 -82.63200378417969,94.29399871826172 -82.63200378417969,94.29399871826172 C-82.63200378417969,94.29399871826172 -83.50399780273438,95.13899993896484 -83.50399780273438,95.13899993896484 C-85.44000244140625,97.01499938964844 -84.11299896240234,100.29399871826172 -81.41699981689453,100.29399871826172 C-81.41699981689453,100.29399871826172 -61.59000015258789,100.29399871826172 -61.59000015258789,100.29399871826172 C-60.79399871826172,100.29399871826172 -60.03200149536133,99.97799682617188 -59.46900177001953,99.41500091552734 C-59.46900177001953,99.41500091552734 15.937000274658203,23.777000427246094 15.937000274658203,23.777000427246094z"/></g><g opacity="1" transform="matrix(1,0,0,1,0,0)"/></g><g transform="matrix(1,0,0,1,214.99600219726562,215)" opacity="1" style="display: none;"><g opacity="1" transform="matrix(1,0,0,1,0,0)"><path class="primary" fill="rgb(58,51,71)" fill-opacity="1" d=" M85.44599914550781,-99.40799713134766 C85.44599914550781,-99.40799713134766 3.9070000648498535,-17.902999877929688 3.9070000648498535,-17.902999877929688 C3.9070000648498535,-17.902999877929688 16.02899932861328,-1.7410000562667847 16.02899932861328,-1.7410000562667847 C16.02899932861328,-1.7410000562667847 108.60900115966797,-94.28700256347656 108.60900115966797,-94.28700256347656 C108.60900115966797,-94.28700256347656 109.48300170898438,-95.14099884033203 109.48300170898438,-95.14099884033203 C111.40599822998047,-97.02100372314453 110.07599639892578,-100.28700256347656 107.38700103759766,-100.28700256347656 C107.38700103759766,-100.28700256347656 87.56700134277344,-100.28700256347656 87.56700134277344,-100.28700256347656 C86.77100372314453,-100.28700256347656 86.00900268554688,-99.97100067138672 85.44599914550781,-99.40799713134766z"/></g></g><g transform="matrix(1,0,0,1,214.99600219726562,215)" opacity="1" style="display: none;"><g opacity="1" transform="matrix(1,0,0,1,0,0)"><path class="primary" fill="rgb(58,51,71)" fill-opacity="1" d=" M-21.898000717163086,7.613999843597412 C-21.898000717163086,7.613999843597412 -108.34500122070312,94.29399871826172 -108.34500122070312,94.29399871826172 C-108.34500122070312,94.29399871826172 -109.21700286865234,95.13899993896484 -109.21700286865234,95.13899993896484 C-111.15299987792969,97.01499938964844 -109.82599639892578,100.29399871826172 -107.12999725341797,100.29399871826172 C-107.12999725341797,100.29399871826172 -87.3030014038086,100.29399871826172 -87.3030014038086,100.29399871826172 C-86.50700378417969,100.29399871826172 -85.74500274658203,99.97799682617188 -85.18199920654297,99.41500091552734 C-85.18199920654297,99.41500091552734 -9.776000022888184,23.777000427246094 -9.776000022888184,23.777000427246094 C-9.776000022888184,23.777000427246094 -21.898000717163086,7.613999843597412 -21.898000717163086,7.613999843597412z"/></g><g opacity="1" transform="matrix(1,0,0,1,-25.687999725341797,0)" style="mix-blend-mode: multiply;"><path class="primary" fill="rgb(58,51,71)" fill-opacity="0.5" d=" M15.937000274658203,23.777000427246094 C15.937000274658203,23.777000427246094 3.815000057220459,7.613999843597412 3.815000057220459,7.613999843597412 C3.815000057220459,7.613999843597412 -82.63200378417969,94.29399871826172 -82.63200378417969,94.29399871826172 C-82.63200378417969,94.29399871826172 -83.50399780273438,95.13899993896484 -83.50399780273438,95.13899993896484 C-85.44000244140625,97.01499938964844 -84.11299896240234,100.29399871826172 -81.41699981689453,100.29399871826172 C-81.41699981689453,100.29399871826172 -61.59000015258789,100.29399871826172 -61.59000015258789,100.29399871826172 C-60.79399871826172,100.29399871826172 -60.03200149536133,99.97799682617188 -59.46900177001953,99.41500091552734 C-59.46900177001953,99.41500091552734 15.937000274658203,23.777000427246094 15.937000274658203,23.777000427246094z"/></g><g opacity="1" transform="matrix(1,0,0,1,0,0)"/></g><g transform="matrix(1,0,0,1,214.99600219726562,215)" opacity="1" style="display: none;"><g opacity="1" transform="matrix(1,0,0,1,0,0)"><path class="primary" fill="rgb(58,51,71)" fill-opacity="1" d=" M85.44599914550781,-99.40799713134766 C85.44599914550781,-99.40799713134766 3.9070000648498535,-17.902999877929688 3.9070000648498535,-17.902999877929688 C3.9070000648498535,-17.902999877929688 16.02899932861328,-1.7410000562667847 16.02899932861328,-1.7410000562667847 C16.02899932861328,-1.7410000562667847 108.60900115966797,-94.28700256347656 108.60900115966797,-94.28700256347656 C108.60900115966797,-94.28700256347656 109.48300170898438,-95.14099884033203 109.48300170898438,-95.14099884033203 C111.40599822998047,-97.02100372314453 110.07599639892578,-100.28700256347656 107.38700103759766,-100.28700256347656 C107.38700103759766,-100.28700256347656 87.56700134277344,-100.28700256347656 87.56700134277344,-100.28700256347656 C86.77100372314453,-100.28700256347656 86.00900268554688,-99.97100067138672 85.44599914550781,-99.40799713134766z"/></g></g><g mask="url(#__lottie_element_106_2)" style="display: none;"><g transform="matrix(1,0,0,1,214.99600219726562,215)" opacity="1"><g opacity="1" transform="matrix(1,0,0,1,0,0)"><path class="primary" fill="rgb(58,51,71)" fill-opacity="1" d=" M-80.48600006103516,80.33699798583984 C-80.48600006103516,80.33699798583984 82.2750015258789,-81.62699890136719 82.2750015258789,-81.62699890136719 C82.2750015258789,-81.62699890136719 82.25399780273438,-81.65799713134766 82.25399780273438,-81.65799713134766 C82.25399780273438,-81.65799713134766 -80.12100219726562,80.33699798583984 -80.12100219726562,80.33699798583984 C-80.12100219726562,80.33699798583984 -80.48600006103516,80.33699798583984 -80.48600006103516,80.33699798583984z M108.64800262451172,-95.35900115966797 C109.69200134277344,-97 109.18800354003906,-99.81600189208984 108.48400115966797,-99.81600189208984 C108.48400115966797,-99.81600189208984 87.62899780273438,-99.92500305175781 87.62899780273438,-99.92500305175781 C85.78600311279297,-99.92500305175781 84.31700134277344,-98.43699645996094 82.21499633789062,-96.17900085449219 C82.21499633789062,-96.17900085449219 -111.26499938964844,96.97899627685547 -111.26499938964844,96.97899627685547 C-110.84300231933594,97.54199981689453 -110.80500030517578,100.49700164794922 -110.10099792480469,100.49700164794922 C-110.10099792480469,100.49700164794922 -87.24600219726562,100.49700164794922 -87.24600219726562,100.49700164794922 C-85.40299987792969,100.49700164794922 -84.80899810791016,99.8740005493164 -84.7699966430664,98.73200225830078 C-84.7699966430664,98.73200225830078 108.64800262451172,-95.35900115966797 108.64800262451172,-95.35900115966797z"/></g><g opacity="1" transform="matrix(1,0,0,1,-25.687999725341797,0)" style="mix-blend-mode: multiply;"><path class="primary" fill="rgb(58,51,71)" fill-opacity="0.5" d=" M-85.55999755859375,96.98100280761719 C-85.13800048828125,97.54399871826172 -85.0999984741211,100.49700164794922 -84.39600372314453,100.49700164794922 C-84.39600372314453,100.49700164794922 -75.56099700927734,100.37000274658203 -75.56099700927734,100.37000274658203 C-75.56099700927734,100.37000274658203 -55.0989990234375,80.27200317382812 -55.0989990234375,80.27200317382812 C-55.0989990234375,80.27200317382812 -55.393001556396484,80.53700256347656 -55.393001556396484,80.53700256347656 C-55.393001556396484,80.53700256347656 28.871999740600586,-3.0420000553131104 28.871999740600586,-3.0420000553131104 C28.871999740600586,-3.0420000553131104 29.014999389648438,-3.115999937057495 29.014999389648438,-3.115999937057495 C29.014999389648438,-3.115999937057495 107.48400115966797,-81.29299926757812 107.48400115966797,-81.29299926757812 C107.48400115966797,-81.29299926757812 107.80000305175781,-81.54100036621094 107.80000305175781,-81.54100036621094 C107.80000305175781,-81.54100036621094 122.8759994506836,-99.71299743652344 122.8759994506836,-99.71299743652344 C122.8759994506836,-99.71299743652344 113.31199645996094,-99.9260025024414 113.31199645996094,-99.9260025024414 C111.46900177001953,-99.9260025024414 110.04199981689453,-98.375 107.89800262451172,-96.17900085449219 C107.89800262451172,-96.17900085449219 -85.55999755859375,96.98100280761719 -85.55999755859375,96.98100280761719z"/></g><g opacity="1" transform="matrix(1,0,0,1,0,0)"/></g></g><g mask="url(#__lottie_element_32_2)" style="display: block;"><g transform="matrix(1,0,0,1,214.99600219726562,215)" opacity="1"><g opacity="1" transform="matrix(1,0,0,1,0,0)"><path class="primary" fill="rgb(58,51,71)" fill-opacity="1" d=" M59.94771957397461,80.08999633789062 C59.94771957397461,80.08999633789062 -62.07212448120117,-80.58999633789062 -62.07212448120117,-80.58999633789062 C-62.07212448120117,-80.58999633789062 -59.805877685546875,-80.58999633789062 -59.805877685546875,-80.58999633789062 C-59.805877685546875,-80.58999633789062 62.195281982421875,80.08999633789062 62.195281982421875,80.08999633789062 C62.195281982421875,80.08999633789062 59.94771957397461,80.08999633789062 59.94771957397461,80.08999633789062z M-61.463443756103516,-98.10588073730469 C-61.88544464111328,-98.66888427734375 -62.54844284057617,-99 -63.252445220947266,-99 C-63.252445220947266,-99 -81.4044418334961,-99 -81.4044418334961,-99 C-83.2474365234375,-99 -84.2994384765625,-96.89600372314453 -83.19343566894531,-95.4219970703125 C-83.19343566894531,-95.4219970703125 63.576560974121094,99.6050033569336 63.576560974121094,99.6050033569336 C63.99856185913086,100.16799926757812 64.66156005859375,100.49911499023438 65.36556243896484,100.49911499023438 C65.36556243896484,100.49911499023438 83.5175552368164,100.49911499023438 83.5175552368164,100.49911499023438 C85.36055755615234,100.49911499023438 86.41255950927734,98.3951187133789 85.30655670166016,96.9211196899414 C85.30655670166016,96.9211196899414 -61.463443756103516,-98.10588073730469 -61.463443756103516,-98.10588073730469z"/></g><g opacity="1" transform="matrix(1,0,0,1,-25.687999725341797,0)" style="mix-blend-mode: multiply;"><path class="primary" fill="rgb(58,51,71)" fill-opacity="0.5" d=" M89.28256225585938,99.6050033569336 C89.70455932617188,100.16799926757812 90.36856079101562,100.49911499023438 91.07256317138672,100.49911499023438 C91.07256317138672,100.49911499023438 101.27300262451172,100.5 101.27300262451172,100.5 C101.27300262451172,100.5 86.79559326171875,80.08999633789062 86.79559326171875,80.08999633789062 C86.79559326171875,80.08999633789062 85.63691711425781,80.08999633789062 85.63691711425781,80.08999633789062 C85.63691711425781,80.08999633789062 -36.381919860839844,-80.58999633789062 -36.381919860839844,-80.58999633789062 C-36.381919860839844,-80.58999633789062 -35.21440505981445,-80.58999633789062 -35.21440505981445,-80.58999633789062 C-35.21440505981445,-80.58999633789062 -48.85200119018555,-99 -48.85200119018555,-99 C-48.85200119018555,-99 -55.69843673706055,-99 -55.69843673706055,-99 C-57.541439056396484,-99 -58.59343719482422,-96.89600372314453 -57.4874382019043,-95.4219970703125 C-57.4874382019043,-95.4219970703125 89.28256225585938,99.6050033569336 89.28256225585938,99.6050033569336z"/></g><g opacity="1" transform="matrix(1,0,0,1,0,0)"/></g></g><g transform="matrix(1,0,0,1,214.99600219726562,215)" opacity="1" style="display: block;"><g opacity="1" transform="matrix(1,0,0,1,0,0)"><path class="primary" fill="rgb(58,51,71)" fill-opacity="1" d=" M-73.67361450195312,80.12918853759766 C-73.67361450195312,80.12918853759766 63.9742431640625,-82.06436920166016 63.9742431640625,-82.06436920166016 C63.9742431640625,-82.06436920166016 81.21746063232422,-82.06436920166016 81.21746063232422,-82.06436920166016 C81.21746063232422,-82.06436920166016 -56.4345703125,80.12918853759766 -56.4345703125,80.12918853759766 C-56.4345703125,80.12918853759766 -73.67361450195312,80.12918853759766 -73.67361450195312,80.12918853759766z M118.95449829101562,-98.7572021484375 C118.76508331298828,-99.49122619628906 118.12730407714844,-100.21732330322266 117.42330932617188,-100.21732330322266 C117.42330932617188,-100.21732330322266 62.2834358215332,-100.37596130371094 62.2834358215332,-100.37596130371094 C60.44043731689453,-100.37596130371094 58.235260009765625,-99.06800842285156 56.86943817138672,-96.62911987304688 C56.86943817138672,-96.62911987304688 -112.94769287109375,99.18753814697266 -112.94769287109375,99.18753814697266 C-112.52569580078125,99.75053405761719 -111.96185302734375,100.4986801147461 -111.25785064697266,100.4986801147461 C-111.25785064697266,100.4986801147461 -52.75079345703125,100.4986801147461 -52.75079345703125,100.4986801147461 C-50.90779495239258,100.4986801147461 -50.31379318237305,99.87483978271484 -50.2747917175293,98.73284149169922 C-50.2747917175293,98.73284149169922 118.95449829101562,-98.7572021484375 118.95449829101562,-98.7572021484375z"/></g><g opacity="1" transform="matrix(1,0,0,1,-25.687999725341797,0)" style="mix-blend-mode: multiply;"><path class="primary" fill="rgb(58,51,71)" fill-opacity="0.5" d=" M-87.24169158935547,99.18753814697266 C-86.81969451904297,99.75053405761719 -86.25585174560547,100.4986801147461 -85.55184936523438,100.4986801147461 C-85.55184936523438,100.4986801147461 -57.18973159790039,100.4966812133789 -57.18973159790039,100.4966812133789 C-57.18973159790039,100.4966812133789 -39.087158203125,80.12918853759766 -39.087158203125,80.12918853759766 C-39.087158203125,80.12918853759766 -47.97047424316406,80.12918853759766 -47.97047424316406,80.12918853759766 C-47.97047424316406,80.12918853759766 6.1533403396606445,16.354942321777344 6.1533403396606445,16.354942321777344 C6.1533403396606445,16.354942321777344 41.551334381103516,-25.356380462646484 41.551334381103516,-25.356380462646484 C41.551334381103516,-25.356380462646484 89.67823028564453,-82.06436920166016 89.67823028564453,-82.06436920166016 C89.67823028564453,-82.06436920166016 98.56328582763672,-82.06436920166016 98.56328582763672,-82.06436920166016 C98.56328582763672,-82.06436920166016 112.58549499511719,-100.22049713134766 112.58549499511719,-100.22049713134766 C112.58549499511719,-100.22049713134766 87.98943328857422,-100.37596130371094 87.98943328857422,-100.37596130371094 C86.14643859863281,-100.37596130371094 84.03726196289062,-99.05817413330078 82.575439453125,-96.62911987304688 C82.575439453125,-96.62911987304688 -87.24169158935547,99.18753814697266 -87.24169158935547,99.18753814697266z"/></g><g opacity="1" transform="matrix(1,0,0,1,0,0)"/></g></g></g></svg>