<svg xmlns="http://www.w3.org/2000/svg" xmlns:xlink="http://www.w3.org/1999/xlink" viewBox="0 0 430 430" width="430" height="430" preserveAspectRatio="xMidYMid meet" style="width: 100%; height: 100%; transform: translate3d(0px, 0px, 0px); content-visibility: visible;"><defs><clipPath id="__lottie_element_2"><rect width="430" height="430" x="0" y="0"/></clipPath><clipPath id="__lottie_element_4"><path d="M0,0 L430,0 L430,430 L0,430z"/></clipPath><g id="__lottie_element_16"><g transform="matrix(0.9999992847442627,0,0,0.9999992847442627,215,215)" opacity="1" style="display: block;"><g opacity="1" transform="matrix(1,0,0,1,0,0)"><path fill="rgb(255,0,0)" fill-opacity="1" d=" M165,-135 C135,-150 -135,-150 -165,-135 C-195,-120 -195,120 -165,135 C-135,150 135,150 165,135 C195,120 195,-120 165,-135z"/></g></g></g><g id="__lottie_element_23"><g transform="matrix(0.9999992847442627,0,0,0.9999992847442627,215,215)" opacity="1" style="display: block;"><g opacity="1" transform="matrix(1,0,0,1,0,0)"><path fill="rgb(255,0,0)" fill-opacity="1" d=" M165,-135 C135,-150 -135,-150 -165,-135 C-195,-120 -195,120 -165,135 C-135,150 135,150 165,135 C195,120 195,-120 165,-135z"/></g></g></g><mask id="__lottie_element_23_1" mask-type="alpha"><use xmlns:ns1="http://www.w3.org/1999/xlink" ns1:href="#__lottie_element_23"/></mask><mask id="__lottie_element_16_1" mask-type="alpha"><use xmlns:ns2="http://www.w3.org/1999/xlink" ns2:href="#__lottie_element_16"/></mask></defs><g clip-path="url(#__lottie_element_2)"><g clip-path="url(#__lottie_element_4)" transform="matrix(1,0,0,1,0,0)" opacity="1" style="display: block;"><g transform="matrix(0.9999992847442627,0,0,0.9999992847442627,215,215)" opacity="1" style="display: block;"><g opacity="1" transform="matrix(1,0,0,1,0,0)"><path class="secondary" fill="rgb(242,76,0)" fill-opacity="1" d=" M165,-135 C135,-150 -135,-150 -165,-135 C-195,-120 -195,120 -165,135 C-135,150 135,150 165,135 C195,120 195,-120 165,-135z"/></g><g opacity="1" transform="matrix(1,0,0,1,-82.5,0)" style="mix-blend-mode: multiply;"><path class="secondary" fill="rgb(242,76,0)" fill-opacity="0.5" d=" M-82.5009994506836,-135 C-65.99700164794922,-143.2519989013672 23.14299964904785,-146.96400451660156 104.9990005493164,-146.13699340820312 C38.0620002746582,-145.4600067138672 -24.0049991607666,-141.7480010986328 -37.500999450683594,-135 C-67.5009994506836,-120 -67.5009994506836,120 -37.500999450683594,135 C-24.0049991607666,141.7480010986328 38.0629997253418,145.4600067138672 105.0009994506836,146.13699340820312 C23.143999099731445,146.96400451660156 -65.99700164794922,143.2519989013672 -82.5009994506836,135 C-112.5009994506836,120 -112.5009994506836,-120 -82.5009994506836,-135z"/></g></g><g mask="url(#__lottie_element_16_1)" style="display: block;"><g transform="matrix(0.9999992847442627,0,0,0.9999992847442627,468.3038330078125,215)" opacity="1"><g opacity="1" transform="matrix(1,0,0,1,0,0)"><path class="primary" fill="rgb(235,230,239)" fill-opacity="1" d=" M54.972999572753906,2.493000030517578 C56.74800109863281,1.3049999475479126 56.74800109863281,-1.3049999475479126 54.972999572753906,-2.493000030517578 C54.972999572753906,-2.493000030517578 -51.6349983215332,-73.8740005493164 -51.6349983215332,-73.8740005493164 C-53.62799835205078,-75.20899963378906 -56.30400085449219,-73.77999877929688 -56.30400085449219,-71.38099670410156 C-56.30400085449219,-71.38099670410156 -56.30400085449219,71.38099670410156 -56.30400085449219,71.38099670410156 C-56.30400085449219,73.77999877929688 -53.62799835205078,75.20899963378906 -51.6349983215332,73.8740005493164 C-51.6349983215332,73.8740005493164 54.972999572753906,2.493000030517578 54.972999572753906,2.493000030517578z"/></g><g opacity="1" transform="matrix(1,0,0,1,-41.375,0)" style="mix-blend-mode: multiply;"><path class="primary" fill="rgb(235,230,239)" fill-opacity="0.5" d=" M15,-56.91299819946289 C15,-56.91299819946289 15,56.91299819946289 15,56.91299819946289 C15,56.91299819946289 -10.331000328063965,73.8740005493164 -10.331000328063965,73.8740005493164 C-12.324000358581543,75.20899963378906 -15,73.77999877929688 -15,71.38099670410156 C-15,71.38099670410156 -15,-71.38099670410156 -15,-71.38099670410156 C-15,-73.77999877929688 -12.324000358581543,-75.20899963378906 -10.331000328063965,-73.8740005493164 C-10.331000328063965,-73.8740005493164 15,-56.91299819946289 15,-56.91299819946289z"/></g></g></g><g mask="url(#__lottie_element_23_1)" style="display: block;"><g transform="matrix(0.9999992847442627,0,0,0.9999992847442627,228.80398559570312,215)" opacity="1"><g opacity="1" transform="matrix(1,0,0,1,0,0)"><path class="primary" fill="rgb(235,230,239)" fill-opacity="1" d=" M54.972999572753906,2.493000030517578 C56.74800109863281,1.3049999475479126 56.74800109863281,-1.3049999475479126 54.972999572753906,-2.493000030517578 C54.972999572753906,-2.493000030517578 -51.6349983215332,-73.8740005493164 -51.6349983215332,-73.8740005493164 C-53.62799835205078,-75.20899963378906 -56.30400085449219,-73.77999877929688 -56.30400085449219,-71.38099670410156 C-56.30400085449219,-71.38099670410156 -56.30400085449219,71.38099670410156 -56.30400085449219,71.38099670410156 C-56.30400085449219,73.77999877929688 -53.62799835205078,75.20899963378906 -51.6349983215332,73.8740005493164 C-51.6349983215332,73.8740005493164 54.972999572753906,2.493000030517578 54.972999572753906,2.493000030517578z"/></g><g opacity="1" transform="matrix(1,0,0,1,-41.375,0)" style="mix-blend-mode: multiply;"><path class="primary" fill="rgb(235,230,239)" fill-opacity="0.5" d=" M15,-56.91299819946289 C15,-56.91299819946289 15,56.91299819946289 15,56.91299819946289 C15,56.91299819946289 -10.331000328063965,73.8740005493164 -10.331000328063965,73.8740005493164 C-12.324000358581543,75.20899963378906 -15,73.77999877929688 -15,71.38099670410156 C-15,71.38099670410156 -15,-71.38099670410156 -15,-71.38099670410156 C-15,-73.77999877929688 -12.324000358581543,-75.20899963378906 -10.331000328063965,-73.8740005493164 C-10.331000328063965,-73.8740005493164 15,-56.91299819946289 15,-56.91299819946289z"/></g></g></g></g></g></svg>